<svg width="1273" height="320" viewBox="0 0 1273 320" fill="none" xmlns="http://www.w3.org/2000/svg">
<rect width="96.219" height="360.429" transform="matrix(1 0 -0.460172 0.88783 165.859 0)" fill="#F2761E"/>
<rect width="96.219" height="184.896" transform="matrix(-1 0 0.460172 0.88783 275.103 155.844)" fill="#F2761E"/>
<path d="M296.162 103.896V0H322.401V103.896H296.162ZM257.389 65.0818V38.8143H361.174V65.0818H257.389Z" fill="#F2761E"/>
<path d="M520.715 214.527H488.913L546.814 49.9404H583.595L641.576 214.527H609.775L565.847 83.6934H564.562L520.715 214.527ZM521.759 149.994H608.49V173.943H521.759V149.994Z" fill="#262626"/>
<path d="M765.691 102.499C764.352 98.159 762.505 94.2747 760.15 90.8459C757.847 87.3634 755.063 84.3899 751.798 81.9254C748.585 79.4609 744.891 77.6125 740.715 76.3803C736.539 75.0944 731.989 74.4515 727.063 74.4515C718.229 74.4515 710.359 76.6749 703.453 81.1218C696.547 85.5686 691.112 92.1049 687.151 100.731C683.242 109.303 681.288 119.75 681.288 132.073C681.288 144.502 683.242 155.03 687.151 163.656C691.059 172.282 696.493 178.845 703.453 183.345C710.413 187.792 718.497 190.016 727.706 190.016C736.058 190.016 743.285 188.408 749.388 185.194C755.545 181.979 760.283 177.425 763.603 171.532C766.922 165.585 768.582 158.62 768.582 150.637L775.328 151.682H730.677V128.376H797.412V148.146C797.412 162.236 794.414 174.425 788.418 184.711C782.421 194.998 774.177 202.927 763.683 208.499C753.19 214.018 741.144 216.777 727.545 216.777C712.394 216.777 699.09 213.375 687.632 206.571C676.229 199.713 667.315 189.989 660.89 177.398C654.519 164.754 651.334 149.753 651.334 132.394C651.334 119.107 653.208 107.24 656.955 96.7928C660.756 86.3455 666.057 77.4786 672.856 70.1922C679.655 62.8523 687.632 57.2803 696.787 53.4764C705.942 49.6189 715.9 47.6902 726.662 47.6902C735.763 47.6902 744.249 49.0296 752.119 51.7084C759.989 54.3336 766.976 58.084 773.079 62.9594C779.236 67.8349 784.295 73.6211 788.257 80.3181C792.219 87.0152 794.815 94.4087 796.047 102.499H765.691Z" fill="#262626"/>
<path d="M961.379 49.9404V214.527H934.877L857.381 102.418H856.016V214.527H826.222V49.9404H852.884L930.3 162.129H931.745V49.9404H961.379Z" fill="#262626"/>
<path d="M1014.96 214.527H983.162L1041.06 49.9404H1077.84L1135.83 214.527H1104.02L1060.1 83.6934H1058.81L1014.96 214.527ZM1016.01 149.994H1102.74V173.943H1016.01V149.994Z" fill="#262626"/>
<path d="M1204.71 188.167V76.9428H1229.92V188.167H1204.71ZM1161.74 145.172V119.938H1272.89V145.172H1161.74Z" fill="#262626"/>
<path d="M487.938 305.201V263.685H503.495C506.682 263.685 509.356 264.28 511.516 265.469C513.691 266.658 515.331 268.294 516.439 270.375C517.56 272.443 518.12 274.794 518.12 277.429C518.12 280.092 517.56 282.457 516.439 284.524C515.318 286.592 513.664 288.22 511.476 289.41C509.288 290.585 506.594 291.173 503.393 291.173H493.083V284.99H502.381C504.244 284.99 505.77 284.666 506.959 284.017C508.147 283.369 509.025 282.477 509.592 281.342C510.173 280.206 510.463 278.902 510.463 277.429C510.463 275.956 510.173 274.659 509.592 273.537C509.025 272.415 508.14 271.544 506.938 270.922C505.75 270.287 504.217 269.969 502.34 269.969H495.453V305.201H487.938Z" fill="#262626"/>
<path d="M524.324 305.201V274.064H531.434V279.254H531.758C532.325 277.456 533.297 276.071 534.675 275.098C536.066 274.112 537.653 273.618 539.435 273.618C539.84 273.618 540.293 273.639 540.793 273.679C541.306 273.706 541.731 273.753 542.069 273.821V280.571C541.758 280.463 541.265 280.369 540.59 280.288C539.928 280.193 539.287 280.146 538.666 280.146C537.329 280.146 536.127 280.436 535.06 281.017C534.006 281.585 533.176 282.375 532.568 283.389C531.961 284.403 531.657 285.572 531.657 286.896V305.201H524.324Z" fill="#262626"/>
<path d="M559.231 305.809C556.193 305.809 553.559 305.14 551.331 303.802C549.103 302.464 547.374 300.593 546.145 298.187C544.93 295.782 544.322 292.971 544.322 289.754C544.322 286.538 544.93 283.72 546.145 281.301C547.374 278.882 549.103 277.004 551.331 275.666C553.559 274.328 556.193 273.659 559.231 273.659C562.27 273.659 564.903 274.328 567.131 275.666C569.36 277.004 571.081 278.882 572.297 281.301C573.526 283.72 574.14 286.538 574.14 289.754C574.14 292.971 573.526 295.782 572.297 298.187C571.081 300.593 569.36 302.464 567.131 303.802C564.903 305.14 562.27 305.809 559.231 305.809ZM559.272 299.93C560.919 299.93 562.297 299.478 563.404 298.572C564.511 297.653 565.335 296.423 565.875 294.883C566.429 293.342 566.706 291.626 566.706 289.734C566.706 287.828 566.429 286.105 565.875 284.565C565.335 283.011 564.511 281.774 563.404 280.855C562.297 279.936 560.919 279.477 559.272 279.477C557.584 279.477 556.179 279.936 555.058 280.855C553.951 281.774 553.12 283.011 552.567 284.565C552.027 286.105 551.756 287.828 551.756 289.734C551.756 291.626 552.027 293.342 552.567 294.883C553.12 296.423 553.951 297.653 555.058 298.572C556.179 299.478 557.584 299.93 559.272 299.93Z" fill="#262626"/>
<path d="M593.936 305.809C590.83 305.809 588.163 305.127 585.935 303.762C583.72 302.397 582.012 300.511 580.81 298.106C579.621 295.687 579.027 292.903 579.027 289.754C579.027 286.592 579.635 283.801 580.85 281.382C582.066 278.95 583.781 277.058 585.996 275.706C588.224 274.341 590.857 273.659 593.896 273.659C596.421 273.659 598.656 274.125 600.601 275.058C602.559 275.976 604.119 277.281 605.28 278.97C606.441 280.646 607.103 282.605 607.265 284.849H600.256C599.973 283.348 599.297 282.098 598.231 281.098C597.177 280.085 595.766 279.578 593.997 279.578C592.498 279.578 591.181 279.983 590.047 280.794C588.912 281.592 588.028 282.74 587.393 284.24C586.772 285.74 586.461 287.538 586.461 289.633C586.461 291.754 586.772 293.579 587.393 295.106C588.014 296.619 588.885 297.788 590.006 298.613C591.141 299.424 592.471 299.829 593.997 299.829C595.077 299.829 596.043 299.626 596.894 299.221C597.758 298.802 598.48 298.201 599.061 297.417C599.642 296.633 600.04 295.68 600.256 294.558H607.265C607.09 296.761 606.441 298.714 605.32 300.417C604.2 302.106 602.674 303.431 600.742 304.39C598.811 305.336 596.543 305.809 593.936 305.809Z" fill="#262626"/>
<path d="M633.118 292.106V274.064H640.451V305.201H633.341V299.667H633.017C632.314 301.41 631.16 302.836 629.553 303.944C627.959 305.052 625.994 305.606 623.658 305.606C621.619 305.606 619.816 305.154 618.249 304.248C616.696 303.329 615.481 301.998 614.603 300.255C613.725 298.498 613.286 296.376 613.286 293.89V274.064H620.619V292.754C620.619 294.727 621.16 296.295 622.24 297.457C623.32 298.62 624.738 299.201 626.494 299.201C627.574 299.201 628.621 298.937 629.634 298.41C630.647 297.883 631.477 297.099 632.125 296.059C632.787 295.004 633.118 293.687 633.118 292.106Z" fill="#262626"/>
<path d="M647.991 305.201V274.064H655.102V279.254H655.426C655.993 277.456 656.965 276.071 658.343 275.098C659.734 274.112 661.32 273.618 663.103 273.618C663.508 273.618 663.96 273.639 664.46 273.679C664.973 273.706 665.399 273.753 665.736 273.821V280.571C665.426 280.463 664.933 280.369 664.258 280.288C663.596 280.193 662.954 280.146 662.333 280.146C660.996 280.146 659.794 280.436 658.727 281.017C657.674 281.585 656.844 282.375 656.236 283.389C655.628 284.403 655.324 285.572 655.324 286.896V305.201H647.991Z" fill="#262626"/>
<path d="M683.101 305.809C679.982 305.809 677.288 305.16 675.019 303.863C672.764 302.552 671.028 300.701 669.813 298.309C668.598 295.903 667.99 293.072 667.99 289.815C667.99 286.612 668.598 283.801 669.813 281.382C671.042 278.95 672.757 277.058 674.958 275.706C677.159 274.341 679.746 273.659 682.717 273.659C684.634 273.659 686.444 273.97 688.145 274.591C689.86 275.199 691.373 276.145 692.683 277.429C694.006 278.713 695.046 280.348 695.802 282.335C696.559 284.308 696.937 286.659 696.937 289.389V291.639H671.434V286.693H689.908C689.894 285.288 689.59 284.038 688.996 282.943C688.402 281.835 687.571 280.963 686.505 280.328C685.451 279.693 684.222 279.375 682.818 279.375C681.319 279.375 680.002 279.74 678.868 280.47C677.733 281.186 676.849 282.132 676.214 283.308C675.593 284.47 675.276 285.747 675.262 287.139V291.457C675.262 293.268 675.593 294.822 676.255 296.119C676.916 297.403 677.841 298.39 679.03 299.079C680.218 299.755 681.609 300.093 683.203 300.093C684.27 300.093 685.235 299.944 686.099 299.647C686.964 299.336 687.713 298.883 688.348 298.288C688.983 297.694 689.462 296.957 689.786 296.079L696.633 296.849C696.201 298.66 695.377 300.241 694.162 301.593C692.96 302.931 691.42 303.971 689.543 304.714C687.666 305.444 685.519 305.809 683.101 305.809Z" fill="#262626"/>
<path d="M703.14 305.201V274.064H710.149V279.355H710.514C711.162 277.571 712.236 276.179 713.735 275.179C715.234 274.166 717.023 273.659 719.103 273.659C721.21 273.659 722.985 274.172 724.43 275.199C725.889 276.213 726.915 277.598 727.509 279.355H727.833C728.522 277.625 729.684 276.247 731.318 275.22C732.965 274.179 734.917 273.659 737.172 273.659C740.035 273.659 742.371 274.564 744.181 276.375C745.99 278.186 746.895 280.828 746.895 284.301V305.201H739.542V285.436C739.542 283.504 739.029 282.092 738.002 281.2C736.976 280.294 735.72 279.842 734.235 279.842C732.466 279.842 731.081 280.396 730.082 281.504C729.096 282.598 728.603 284.024 728.603 285.781V305.201H721.412V285.132C721.412 283.524 720.926 282.24 719.954 281.281C718.995 280.321 717.739 279.842 716.186 279.842C715.132 279.842 714.174 280.112 713.309 280.652C712.445 281.179 711.756 281.929 711.243 282.903C710.73 283.862 710.473 284.984 710.473 286.268V305.201H703.14Z" fill="#262626"/>
<path d="M768.109 305.809C764.989 305.809 762.295 305.16 760.027 303.863C757.771 302.552 756.036 300.701 754.821 298.309C753.605 295.903 752.997 293.072 752.997 289.815C752.997 286.612 753.605 283.801 754.821 281.382C756.049 278.95 757.765 277.058 759.966 275.706C762.167 274.341 764.753 273.659 767.724 273.659C769.642 273.659 771.451 273.97 773.153 274.591C774.868 275.199 776.381 276.145 777.69 277.429C779.014 278.713 780.054 280.348 780.81 282.335C781.566 284.308 781.944 286.659 781.944 289.389V291.639H756.441V286.693H774.915C774.902 285.288 774.598 284.038 774.004 282.943C773.41 281.835 772.579 280.963 771.512 280.328C770.459 279.693 769.23 279.375 767.825 279.375C766.326 279.375 765.01 279.74 763.875 280.47C762.741 281.186 761.856 282.132 761.222 283.308C760.601 284.47 760.283 285.747 760.27 287.139V291.457C760.27 293.268 760.6 294.822 761.262 296.119C761.924 297.403 762.849 298.39 764.037 299.079C765.226 299.755 766.617 300.093 768.21 300.093C769.277 300.093 770.243 299.944 771.107 299.647C771.971 299.336 772.721 298.883 773.356 298.288C773.99 297.694 774.47 296.957 774.794 296.079L781.641 296.849C781.208 298.66 780.385 300.241 779.169 301.593C777.967 302.931 776.428 303.971 774.551 304.714C772.674 305.444 770.526 305.809 768.109 305.809Z" fill="#262626"/>
<path d="M795.481 286.957V305.201H788.148V274.064H795.157V279.355H795.521C796.237 277.612 797.378 276.226 798.945 275.199C800.525 274.172 802.476 273.659 804.799 273.659C806.946 273.659 808.817 274.118 810.41 275.037C812.017 275.956 813.26 277.287 814.137 279.031C815.029 280.774 815.468 282.889 815.454 285.376V305.201H808.121V286.511C808.121 284.43 807.581 282.801 806.501 281.625C805.434 280.45 803.955 279.862 802.064 279.862C800.782 279.862 799.64 280.146 798.641 280.713C797.655 281.267 796.879 282.071 796.312 283.125C795.758 284.18 795.481 285.457 795.481 286.957Z" fill="#262626"/>
<path d="M838.446 274.064V279.74H820.559V274.064H838.446ZM824.975 266.604H832.308V295.836C832.308 296.822 832.456 297.579 832.753 298.106C833.064 298.62 833.469 298.971 833.969 299.16C834.469 299.349 835.022 299.444 835.63 299.444C836.089 299.444 836.508 299.41 836.886 299.343C837.277 299.275 837.575 299.214 837.777 299.16L839.013 304.897C838.621 305.032 838.061 305.181 837.331 305.343C836.616 305.505 835.738 305.6 834.698 305.627C832.862 305.681 831.207 305.404 829.735 304.795C828.263 304.174 827.095 303.214 826.231 301.917C825.38 300.62 824.961 298.998 824.975 297.052V266.604Z" fill="#262626"/>
<path d="M871.125 305.809C868.289 305.809 865.851 305.296 863.812 304.268C861.773 303.241 860.2 301.856 859.092 300.113C857.998 298.356 857.452 296.376 857.452 294.173C857.452 292.511 857.789 291.038 858.464 289.754C859.153 288.47 860.098 287.281 861.3 286.186C862.516 285.092 863.92 284.004 865.514 282.923L872.867 277.916C873.947 277.213 874.764 276.47 875.318 275.686C875.885 274.902 876.169 273.983 876.169 272.929C876.169 272.037 875.791 271.192 875.034 270.395C874.292 269.598 873.265 269.199 871.955 269.199C871.078 269.199 870.301 269.409 869.626 269.828C868.964 270.233 868.444 270.767 868.066 271.429C867.701 272.091 867.519 272.794 867.519 273.537C867.519 274.443 867.769 275.362 868.269 276.294C868.782 277.227 869.444 278.193 870.254 279.193C871.078 280.193 871.955 281.254 872.887 282.375L892.354 305.201H884.413L868.248 286.673C867.046 285.267 865.885 283.882 864.764 282.517C863.657 281.152 862.745 279.733 862.03 278.26C861.327 276.774 860.976 275.166 860.976 273.436C860.976 271.476 861.429 269.726 862.333 268.186C863.238 266.631 864.501 265.408 866.121 264.516C867.755 263.625 869.666 263.179 871.854 263.179C874.042 263.179 875.919 263.611 877.485 264.476C879.052 265.341 880.261 266.49 881.111 267.922C881.962 269.355 882.388 270.915 882.388 272.605C882.388 274.564 881.901 276.321 880.929 277.875C879.957 279.416 878.606 280.815 876.878 282.071L868.491 288.214C867.114 289.214 866.128 290.227 865.534 291.254C864.94 292.268 864.643 293.133 864.643 293.849C864.643 294.944 864.92 295.937 865.473 296.829C866.027 297.721 866.803 298.437 867.803 298.978C868.816 299.505 869.997 299.768 871.348 299.768C872.833 299.768 874.298 299.437 875.743 298.775C877.188 298.099 878.505 297.14 879.693 295.896C880.882 294.653 881.827 293.167 882.529 291.437C883.232 289.693 883.583 287.761 883.583 285.639H889.883C889.883 288.261 889.592 290.545 889.012 292.491C888.431 294.423 887.681 296.059 886.763 297.396C885.845 298.721 884.872 299.782 883.846 300.579C883.522 300.809 883.211 301.039 882.914 301.268C882.617 301.498 882.307 301.728 881.982 301.958C880.524 303.282 878.816 304.255 876.858 304.877C874.913 305.498 873.002 305.809 871.125 305.809Z" fill="#262626"/>
<path d="M911.026 305.201V263.685H918.541V298.897H936.813V305.201H911.026Z" fill="#262626"/>
<path d="M956.583 305.809C953.545 305.809 950.911 305.14 948.683 303.802C946.455 302.464 944.726 300.593 943.497 298.187C942.282 295.782 941.674 292.971 941.674 289.754C941.674 286.538 942.282 283.72 943.497 281.301C944.726 278.882 946.455 277.004 948.683 275.666C950.911 274.328 953.545 273.659 956.583 273.659C959.622 273.659 962.255 274.328 964.483 275.666C966.712 277.004 968.433 278.882 969.649 281.301C970.878 283.72 971.492 286.538 971.492 289.754C971.492 292.971 970.878 295.782 969.649 298.187C968.433 300.593 966.712 302.464 964.483 303.802C962.255 305.14 959.622 305.809 956.583 305.809ZM956.624 299.93C958.271 299.93 959.649 299.478 960.756 298.572C961.863 297.653 962.687 296.423 963.227 294.883C963.781 293.342 964.058 291.626 964.058 289.734C964.058 287.828 963.781 286.105 963.227 284.565C962.687 283.011 961.863 281.774 960.756 280.855C959.649 279.936 958.271 279.477 956.624 279.477C954.936 279.477 953.531 279.936 952.41 280.855C951.303 281.774 950.472 283.011 949.919 284.565C949.378 286.105 949.108 287.828 949.108 289.734C949.108 291.626 949.378 293.342 949.919 294.883C950.472 296.423 951.303 297.653 952.41 298.572C953.531 299.478 954.936 299.93 956.624 299.93Z" fill="#262626"/>
<path d="M991.248 317.526C988.614 317.526 986.352 317.168 984.462 316.451C982.571 315.749 981.052 314.803 979.904 313.613C978.756 312.424 977.959 311.107 977.513 309.661L984.117 308.059C984.414 308.667 984.846 309.269 985.414 309.863C985.981 310.471 986.744 310.971 987.703 311.363C988.675 311.769 989.897 311.972 991.369 311.972C993.449 311.972 995.171 311.465 996.535 310.451C997.899 309.451 998.581 307.802 998.581 305.505V299.606H998.216C997.838 300.363 997.284 301.14 996.555 301.937C995.839 302.735 994.887 303.404 993.699 303.944C992.524 304.485 991.045 304.755 989.262 304.755C986.872 304.755 984.705 304.194 982.76 303.072C980.829 301.937 979.289 300.248 978.141 298.005C977.007 295.748 976.44 292.923 976.44 289.531C976.44 286.112 977.007 283.227 978.141 280.875C979.289 278.51 980.836 276.72 982.78 275.503C984.725 274.274 986.892 273.659 989.283 273.659C991.106 273.659 992.605 273.97 993.78 274.591C994.968 275.199 995.913 275.936 996.616 276.801C997.318 277.652 997.851 278.456 998.216 279.213H998.621V274.064H1005.85V305.708C1005.85 308.37 1005.22 310.573 1003.95 312.316C1002.68 314.059 1000.94 315.364 998.743 316.228C996.541 317.093 994.043 317.526 991.248 317.526ZM991.308 298.998C992.861 298.998 994.185 298.62 995.279 297.863C996.373 297.106 997.203 296.018 997.77 294.599C998.337 293.18 998.621 291.477 998.621 289.491C998.621 287.531 998.337 285.815 997.77 284.342C997.217 282.869 996.393 281.727 995.299 280.916C994.219 280.092 992.888 279.679 991.308 279.679C989.674 279.679 988.31 280.105 987.216 280.956C986.123 281.808 985.299 282.977 984.745 284.463C984.191 285.936 983.915 287.612 983.915 289.491C983.915 291.396 984.191 293.065 984.745 294.498C985.312 295.917 986.143 297.025 987.237 297.822C988.344 298.606 989.701 298.998 991.308 298.998Z" fill="#262626"/>
<path d="M1013.37 305.201V274.064H1020.7V305.201H1013.37ZM1017.05 269.645C1015.89 269.645 1014.89 269.26 1014.06 268.49C1013.22 267.706 1012.8 266.767 1012.8 265.672C1012.8 264.564 1013.22 263.625 1014.06 262.854C1014.89 262.07 1015.89 261.678 1017.05 261.678C1018.23 261.678 1019.23 262.07 1020.05 262.854C1020.89 263.625 1021.31 264.564 1021.31 265.672C1021.31 266.767 1020.89 267.706 1020.05 268.49C1019.23 269.26 1018.23 269.645 1017.05 269.645Z" fill="#262626"/>
<path d="M1052.83 282.294L1046.15 283.024C1045.96 282.348 1045.63 281.713 1045.16 281.119C1044.7 280.524 1044.08 280.044 1043.29 279.679C1042.51 279.314 1041.55 279.132 1040.42 279.132C1038.89 279.132 1037.61 279.463 1036.57 280.125C1035.54 280.788 1035.03 281.646 1035.05 282.7C1035.03 283.605 1035.37 284.342 1036.04 284.909C1036.73 285.477 1037.86 285.943 1039.44 286.308L1044.75 287.443C1047.69 288.078 1049.88 289.085 1051.31 290.464C1052.76 291.842 1053.49 293.646 1053.5 295.876C1053.49 297.836 1052.91 299.565 1051.78 301.066C1050.66 302.552 1049.1 303.714 1047.1 304.552C1045.1 305.39 1042.81 305.809 1040.21 305.809C1036.41 305.809 1033.34 305.012 1031.02 303.417C1028.69 301.809 1027.31 299.572 1026.86 296.707L1034.01 296.018C1034.34 297.423 1035.03 298.484 1036.08 299.201C1037.13 299.917 1038.5 300.275 1040.19 300.275C1041.94 300.275 1043.33 299.917 1044.39 299.201C1045.45 298.484 1045.99 297.599 1045.99 296.545C1045.99 295.653 1045.64 294.917 1044.95 294.336C1044.28 293.754 1043.22 293.308 1041.79 292.998L1036.49 291.883C1033.5 291.261 1031.29 290.214 1029.86 288.741C1028.43 287.254 1027.72 285.376 1027.74 283.105C1027.72 281.186 1028.24 279.524 1029.29 278.118C1030.36 276.699 1031.84 275.605 1033.73 274.835C1035.64 274.051 1037.83 273.659 1040.31 273.659C1043.96 273.659 1046.83 274.436 1048.92 275.99C1051.03 277.544 1052.33 279.646 1052.83 282.294Z" fill="#262626"/>
<path d="M1075.09 274.064V279.74H1057.2V274.064H1075.09ZM1061.61 266.604H1068.95V295.836C1068.95 296.822 1069.1 297.579 1069.39 298.106C1069.7 298.62 1070.11 298.971 1070.61 299.16C1071.11 299.349 1071.66 299.444 1072.27 299.444C1072.73 299.444 1073.15 299.41 1073.53 299.343C1073.92 299.275 1074.21 299.214 1074.42 299.16L1075.65 304.897C1075.26 305.032 1074.7 305.181 1073.97 305.343C1073.26 305.505 1072.38 305.6 1071.34 305.627C1069.5 305.681 1067.85 305.404 1066.37 304.795C1064.9 304.174 1063.73 303.214 1062.87 301.917C1062.02 300.62 1061.6 298.998 1061.61 297.052V266.604Z" fill="#262626"/>
<path d="M1081.22 305.201V274.064H1088.55V305.201H1081.22ZM1084.9 269.645C1083.74 269.645 1082.74 269.26 1081.91 268.49C1081.07 267.706 1080.65 266.767 1080.65 265.672C1080.65 264.564 1081.07 263.625 1081.91 262.854C1082.74 262.07 1083.74 261.678 1084.9 261.678C1086.08 261.678 1087.08 262.07 1087.9 262.854C1088.74 263.625 1089.16 264.564 1089.16 265.672C1089.16 266.767 1088.74 267.706 1087.9 268.49C1087.08 269.26 1086.08 269.645 1084.9 269.645Z" fill="#262626"/>
<path d="M1109.66 305.809C1106.56 305.809 1103.89 305.127 1101.66 303.762C1099.45 302.397 1097.74 300.511 1096.54 298.106C1095.35 295.687 1094.75 292.903 1094.75 289.754C1094.75 286.592 1095.36 283.801 1096.58 281.382C1097.79 278.95 1099.51 277.058 1101.72 275.706C1103.95 274.341 1106.58 273.659 1109.62 273.659C1112.15 273.659 1114.38 274.125 1116.33 275.058C1118.29 275.976 1119.85 277.281 1121.01 278.97C1122.17 280.646 1122.83 282.605 1122.99 284.849H1115.98C1115.7 283.348 1115.02 282.098 1113.96 281.098C1112.9 280.085 1111.49 279.578 1109.72 279.578C1108.23 279.578 1106.91 279.983 1105.77 280.794C1104.64 281.592 1103.76 282.74 1103.12 284.24C1102.5 285.74 1102.19 287.538 1102.19 289.633C1102.19 291.754 1102.5 293.579 1103.12 295.106C1103.74 296.619 1104.61 297.788 1105.73 298.613C1106.87 299.424 1108.2 299.829 1109.72 299.829C1110.8 299.829 1111.77 299.626 1112.62 299.221C1113.49 298.802 1114.21 298.201 1114.79 297.417C1115.37 296.633 1115.77 295.68 1115.98 294.558H1122.99C1122.82 296.761 1122.17 298.714 1121.05 300.417C1119.93 302.106 1118.4 303.431 1116.47 304.39C1114.54 305.336 1112.27 305.809 1109.66 305.809Z" fill="#262626"/>
<path d="M1153.61 282.294L1146.92 283.024C1146.73 282.348 1146.4 281.713 1145.93 281.119C1145.47 280.524 1144.85 280.044 1144.06 279.679C1143.28 279.314 1142.32 279.132 1141.19 279.132C1139.66 279.132 1138.38 279.463 1137.34 280.125C1136.31 280.788 1135.81 281.646 1135.82 282.7C1135.81 283.605 1136.14 284.342 1136.81 284.909C1137.5 285.477 1138.64 285.943 1140.22 286.308L1145.52 287.443C1148.47 288.078 1150.65 289.085 1152.09 290.464C1153.53 291.842 1154.26 293.646 1154.27 295.876C1154.26 297.836 1153.69 299.565 1152.55 301.066C1151.43 302.552 1149.87 303.714 1147.87 304.552C1145.87 305.39 1143.58 305.809 1140.99 305.809C1137.18 305.809 1134.11 305.012 1131.79 303.417C1129.47 301.809 1128.08 299.572 1127.64 296.707L1134.79 296.018C1135.11 297.423 1135.8 298.484 1136.85 299.201C1137.91 299.917 1139.28 300.275 1140.97 300.275C1142.71 300.275 1144.11 299.917 1145.16 299.201C1146.23 298.484 1146.76 297.599 1146.76 296.545C1146.76 295.653 1146.41 294.917 1145.73 294.336C1145.05 293.754 1144 293.308 1142.57 292.998L1137.26 291.883C1134.27 291.261 1132.07 290.214 1130.63 288.741C1129.2 287.254 1128.49 285.376 1128.51 283.105C1128.49 281.186 1129.01 279.524 1130.07 278.118C1131.13 276.699 1132.61 275.605 1134.5 274.835C1136.41 274.051 1138.6 273.659 1141.09 273.659C1144.73 273.659 1147.6 274.436 1149.7 275.99C1151.8 277.544 1153.11 279.646 1153.61 282.294Z" fill="#262626"/>
</svg>
